<?xml version="1.0" encoding="utf-8"?>
<!-- Generator: Adobe Illustrator 21.0.2, SVG Export Plug-In . SVG Version: 6.00 Build 0)  -->
<svg version="1.1" id="Layer_1" xmlns="http://www.w3.org/2000/svg" xmlns:xlink="http://www.w3.org/1999/xlink" x="0px" y="0px"
	 viewBox="0 0 512 512" style="enable-background:new 0 0 512 512;" xml:space="preserve">
<style type="text/css">
	.st0{fill:#1F86BB;stroke:#074C7B;stroke-width:3;stroke-linecap:round;stroke-linejoin:round;stroke-miterlimit:10;}
	.st1{fill:#639E47;stroke:#18510F;stroke-width:3;stroke-linecap:round;stroke-linejoin:round;stroke-miterlimit:10;}
	.st2{fill:#6FAD54;stroke:#18510F;stroke-width:3;stroke-linecap:round;stroke-linejoin:round;stroke-miterlimit:10;}
	.st3{fill:#BBAAD0;stroke:#493D57;stroke-width:3;stroke-linecap:round;stroke-linejoin:round;stroke-miterlimit:10;}
	.st4{fill:#DD7052;stroke:#7F3622;stroke-width:3;stroke-linecap:round;stroke-linejoin:round;stroke-miterlimit:10;}
	.st5{fill:#F4BA64;stroke:#71552A;stroke-width:3;stroke-linecap:round;stroke-linejoin:round;stroke-miterlimit:10;}
	.st6{fill:#8E693C;}
	.st7{fill:none;stroke:#71552A;stroke-width:3;stroke-linecap:round;stroke-linejoin:round;stroke-miterlimit:10;}
	.st8{fill:#DDB9DB;stroke:#493D57;stroke-width:3;stroke-linecap:round;stroke-linejoin:round;stroke-miterlimit:10;}
	.st9{fill:#493D57;}
	.st10{fill:none;stroke:#493D57;stroke-width:3;stroke-linecap:round;stroke-linejoin:round;stroke-miterlimit:10;}
	.st11{font-family:'Montserrat-Medium';}
	.st12{font-size:12px;}
</style>
<g>
	<path class="st0" d="M146.4,135.7c0,0,10.3,19.5-2.3,40.2l-20.1-0.6c0,0-6.9,5.7-12.6,6.9c-5.7,1.1-27.6,2.3-32.2,1.1
		c-4.6-1.1-5-11.6-1.1-13.2c0,0-4.3-2.2-4.6-5.6s2.2-6,2.2-6s-5.5-0.3-6.3-5.9c-0.9-5.6,3.9-6.9,3.9-6.9s-7.3-1.7-7.3-8.3
		c0-6.6,6.5-8,6.5-8h36.6c0,0-9.3-10.6-10.5-14.8c-1.1-4.2-1.4-13.9-0.9-16.2c0.6-2.3,1.9-4.2,6.5-4.2s7.8,12.8,7.8,12.8l25.7,28
		C137.5,134.9,144.1,134.9,146.4,135.7z"/>
	<g>
		<g>
			<path class="st1" d="M139.9,352.1c0,0-6.5-6.9-5.4-17.2c0,0-11.5-15.5-13.2-26.4c-1.7-10.9-12.2-6.9-12.6-1.9
				c-0.4,5,4.2,25.1,4.2,25.1c-7.1-5.7-14.3-11.3-21.4-17c-3.1-2.4-6.1-4.8-9.2-7.3c-3.2-2.5-5.9-5.4-10.3-5.1
				c-1.4,0.1-2.8,0.5-3.7,1.7c-0.7,0.8-2.4,4.9-1.3,5.7c0,0-6.7-5.2-10.4-1.1c-3.7,4.1,0,9.9,1.7,11.6c0,0-4.3-1-6.4,3.6
				c-1.8,4.1,5.2,10.4,7.8,12.2c0,0-3.7,0-5.5,4.3c-1.7,4.3,2.8,8.2,5.7,10.4c3,2.2,39.3,27.8,39.3,27.8s12.1-0.3,16.7,4.8
				C116,383.3,140.9,376.6,139.9,352.1z"/>
			<line class="st1" x1="67" y1="309.6" x2="103.8" y2="338.3"/>
			<line class="st1" x1="58.2" y1="320.1" x2="93.6" y2="345.5"/>
			<line class="st1" x1="59.7" y1="335.9" x2="90" y2="356.4"/>
		</g>
		<g>
			<path class="st2" d="M156.3,352.1c0,0-6.5-6.9-5.4-17.2c0,0-11.5-15.5-13.2-26.4s-12.2-6.9-12.6-1.9c-0.4,5,4.2,25.1,4.2,25.1
				c-7.1-5.7-14.3-11.3-21.4-17c-3.1-2.4-6.1-4.8-9.2-7.3c-3.2-2.5-5.9-5.4-10.3-5.1c-1.4,0.1-2.8,0.5-3.7,1.7
				c-0.7,0.8-2.4,4.9-1.3,5.7c0,0-6.7-5.2-10.4-1.1c-3.7,4.1,0,9.9,1.7,11.6c0,0-4.3-1-6.4,3.6c-1.8,4.1,5.2,10.4,7.8,12.2
				c0,0-3.7,0-5.5,4.3c-1.7,4.3,2.8,8.2,5.7,10.4c3,2.2,39.3,27.8,39.3,27.8s12.1-0.3,16.7,4.8C132.5,383.3,157.4,376.6,156.3,352.1
				z"/>
			<line class="st2" x1="83.4" y1="309.6" x2="120.2" y2="338.3"/>
			<line class="st2" x1="74.7" y1="320.1" x2="110.1" y2="345.5"/>
			<line class="st2" x1="76.1" y1="335.9" x2="106.4" y2="356.4"/>
		</g>
		<line class="st1" x1="76.2" y1="289.4" x2="67.8" y2="276.2"/>
		<line class="st1" x1="85.6" y1="288.5" x2="86.4" y2="271"/>
		<line class="st1" x1="95.2" y1="290" x2="103.8" y2="277.6"/>
	</g>
	<g>
		<path class="st3" d="M417.3,166.4c0,0-32.4-11.5-34.3-12.4c-1.7-0.8-15.7-11.3-19.1-7.3c-4.5,5.3,5.1,11.2,5.1,11.2l39,15.2
			L417.3,166.4z"/>
		<path class="st3" d="M457.5,163c0,0,8.8,13.2-3.8,25.9l-48.7-6.3L356.4,160c0,0-2.1-3.6,0-6.5s5.7-2.4,7.5-1.7
			c1.8,0.8,31.7,12.9,38.1,12.8s14-2.7,14-2.7l-19.1-9.2c0,0-3.6-2-1.7-6.6s8.9-1.2,18.9,1.8c0,0,11-3,20.3,1.2
			c9.3,4.2,11.4,14.4,11.4,14.4L457.5,163z"/>
		<path class="st4" d="M404.1,100.6c-8.9-7.1-18.5,2.3-18.5,2.3s-9.6-9.4-18.5-2.3c-8.9,7.1-3.4,17.8-0.7,20.9
			c2.7,3.1,19.2,19.2,19.2,19.2s16.5-16.1,19.2-19.2C407.5,118.4,412.9,107.7,404.1,100.6z"/>
	</g>
	<path class="st4" d="M287.2,109.7c-16.2-13-33.8,4.2-33.8,4.2s-17.6-17.2-33.8-4.2c-16.2,13-6.2,32.6-1.2,38.2
		c4.9,5.6,35,35.1,35,35.1s30.1-29.4,35-35.1C293.4,142.3,303.4,122.7,287.2,109.7z"/>
	<g>
		<path class="st5" d="M289.7,312.4c-7.2-32-58.7-31.8-65.8,0c-5.4,24,16.8,43.3,16.8,43.3v30.8h16.1h16.1v-30.8
			C272.8,355.7,295,336.4,289.7,312.4z"/>
		<rect x="242" y="364.5" class="st6" width="29.4" height="20.6"/>
		<line class="st5" x1="240.6" y1="363.8" x2="272.8" y2="363.8"/>
		<line class="st7" x1="235.7" y1="283.8" x2="229.1" y2="274.1"/>
		<line class="st7" x1="279.9" y1="284.4" x2="286.5" y2="274.5"/>
		<line class="st7" x1="256.7" y1="280.3" x2="256.7" y2="267.8"/>
	</g>
	<g>
		<path class="st8" d="M404.4,294.9c4.1-1.4,8.4-2.1,12.9-2.1c22.5,0,40.7,18.2,40.7,40.7c0,22.5-18.2,40.7-40.7,40.7
			s-40.7-18.2-40.7-40.7C376.6,315.6,388.3,300.3,404.4,294.9"/>
		<path class="st8" d="M380.8,362.5c0,0,7.4-3.4,8.6-9.7c1.1-6.3,2.9-13.7,8-13.1c5.1,0.6,4,5.4,4,5.4l0.1,11.4l22.7-4.3
			c0,0,4,0.9,4.3,4s-1.1,5.1-11.1,6.3c0,0,3.4,14-1.1,19.7c-4.6,5.7-31.1,2.6-31.1,2.6S379,378.8,380.8,362.5z"/>
		<circle class="st9" cx="403" cy="319.2" r="4"/>
		<circle class="st9" cx="430.8" cy="323.2" r="4"/>
		<line class="st10" x1="408.4" y1="336.1" x2="420.1" y2="336.1"/>
		<path class="st3" d="M427.4,312.2c0,0,7.7-2.8,12.7,4.5"/>
		<path class="st3" d="M394.3,307.8c0,0,4.9-6.6,13-3.4"/>
	</g>
	<text transform="matrix(1 0 0 1 99.4845 214.0443)" class="st11 st12">Like</text>
	<text transform="matrix(1 0 0 1 242.0319 214.0443)" class="st11 st12">Love</text>
	<text transform="matrix(1 0 0 1 390.0035 214.0443)" class="st11 st12">Support</text>
	<text transform="matrix(1 0 0 1 80.0574 414.711)" class="st11 st12">Celebrate</text>
	<text transform="matrix(1 0 0 1 229.1308 414.711)" class="st11 st12">Insightful</text>
	<text transform="matrix(1 0 0 1 394.2809 414.711)" class="st11 st12">Curious</text>
</g>
</svg>
